<svg xmlns="http://www.w3.org/2000/svg" width="79.733" height="64.653" viewBox="0 0 79.73333 64.653336"><defs><clipPath id="a"><path d="M0 0h59.8v48.5H0z"/></clipPath></defs><g><g><g clip-path="url(#a)" transform="matrix(1.333 0 0 -1.333 0 64.653)"><g><path fill="#fff" d="M52.78 40.82c2.73 1.65 4.5 3.9 5.33 6.76-2.68-1.4-5.28-2.34-7.8-2.86-2.33 2.5-5.28 3.77-8.83 3.77-3.42 0-6.34-1.2-8.74-3.58-2.4-2.4-3.6-5.27-3.6-8.65 0-1.04.12-1.95.38-2.73-10.17.3-18.62 4.55-25.34 12.74-1.13-2.04-1.7-4.07-1.7-6.1 0-4.34 1.83-7.77 5.47-10.28-2.08.17-3.9.7-5.46 1.56v-.13c0-3.03.94-5.67 2.83-7.9 1.88-2.23 4.2-3.63 6.92-4.2-1.04-.25-2.12-.38-3.25-.38-1.08 0-1.82.1-2.2.26.73-2.42 2.12-4.43 4.18-6.03 2.06-1.6 4.48-2.45 7.25-2.54-4.46-3.47-9.53-5.2-15.2-5.2-1.22 0-2.22.04-3 .13C5.68 1.82 11.96 0 18.85 0 25.9 0 32.2 1.8 37.7 5.4c5.46 3.55 9.5 7.95 12.1 13.2 2.6 5.2 3.9 10.6 3.9 16.24v1.56c2.46 1.82 4.5 3.94 6.1 6.37-2.3-.95-4.64-1.6-7.02-1.95"/></g></g></g></g></svg>
