<svg xmlns="http://www.w3.org/2000/svg" width="75.238" height="66.787" viewBox="0 0 75.237503 66.787498"><defs><clipPath id="a"><path d="M0 0h60.2v53.43H0V0z"/></clipPath></defs><g><g><g clip-path="url(#a)" transform="matrix(1.25 0 0 -1.25 0 66.787)"><g><path fill="#00bc9c" d="M1.17 30.94c1.26-3.08 3-5.83 5.2-8.26.52-.6.95-1.06 1.3-1.36L28.27.78C28.75.26 29.38 0 30.1 0c.7 0 1.34.26 1.94.78l20.48 20.48.26.13c.1.12.23.3.42.54.2.24.43.5.7.75.9.98 1.78 2.13 2.65 3.43 2.43 3.68 3.64 7.28 3.64 10.8 0 3.02-.5 5.6-1.44 7.73-2.7 5.85-7.63 8.77-14.82 8.77-1.52 0-2.92-.24-4.22-.71-3.3-1.18-6.5-3.32-9.62-6.44-2.2 2.17-4.12 3.73-5.72 4.68-2.78 1.65-5.46 2.47-8.06 2.47-5.16 0-9.17-1.45-12.03-4.36C1.42 46.17 0 42.12 0 36.92c0-2.04.4-4.03 1.17-5.98M16.3 48.1c1.14 0 2.3-.28 3.52-.85 3.25-1.5 6-3.7 8.26-6.56.52-.7 1.2-1.05 2.02-1.05.82 0 1.5.35 2.07 1.04 1.26 1.55 2.84 3.04 4.75 4.47 2.6 1.95 4.94 2.93 7.02 2.93 7.28 0 10.92-3.73 10.92-11.18 0-1.43-.3-2.88-.9-4.36-1.14-2.64-2.52-4.78-4.17-6.43l-9.82-9.82-9.88-9.87-9.1 9.1-10.6 10.6c-.6.65-1.3 1.54-2.08 2.66-2 2.9-3 5.6-3 8.12 0 7.45 3.67 11.18 11 11.18"/></g></g></g></g></svg>