<svg xmlns="http://www.w3.org/2000/svg" width="50.267" height="84.934" viewBox="0 0 50.266933 84.933601"><defs><clipPath id="a"><path d="M0 0h37.7v63.7H0z"/></clipPath></defs><g><g><g clip-path="url(#a)" transform="matrix(1.333 0 0 -1.333 0 84.934)"><g><path fill="#a3b1bf" d="M6.5 63.7c-1.78 0-3.3-.64-4.58-1.92C.64 60.5 0 58.98 0 57.2V6.5c0-1.73.65-3.25 1.95-4.55C3.25.65 4.77 0 6.5 0h24.7c1.78 0 3.3.64 4.58 1.92 1.28 1.28 1.92 2.8 1.92 4.58v50.7c0 1.82-.63 3.36-1.9 4.62-1.24 1.25-2.78 1.88-4.6 1.88zm9.23-60.16c-.95.63-1.43 1.4-1.43 2.3 0 .92.48 1.7 1.43 2.32.95.63 2 .94 3.12.94 1.2 0 2.27-.3 3.19-.88.9-.58 1.36-1.37 1.36-2.37 0-.95-.47-1.73-1.4-2.34-.93-.6-1.98-.9-3.15-.9-1.13 0-2.17.32-3.12.94M5.2 55.24h27.3v-42.9H5.2z"/></g></g></g></g></svg>