<svg xmlns="http://www.w3.org/2000/svg" width="18" height="18" viewBox="0 0 64.079124 64.349625"><defs><clipPath id="a"><path d="M0 0h51.26v51.48H0V0z"/></clipPath></defs><g><g><g clip-path="url(#a)" transform="matrix(1.25 0 0 -1.25 0 64.35)"><g><path fill="#506a85" d="M37.83 20.28c2 3.16 3 6.67 3 10.53 0 5.56-2.1 10.4-6.25 14.5-4.2 4.12-9.06 6.18-14.56 6.18-5.55 0-10.27-1.97-14.17-5.92C1.95 41.62 0 36.88 0 31.33c0-5.55 2.06-10.38 6.17-14.5 4.12-4.1 8.95-6.17 14.5-6.17 3.6 0 6.98.9 10.14 2.73L43.17 1.03c1.4-1.4 2.86-1.4 4.42 0l3 3c1.03 1.2.9 2.55-.4 4.02L37.83 20.28zm-17.8 24.96c3.85 0 7.23-1.45 10.13-4.36 2.95-2.94 4.42-6.3 4.42-10.07 0-3.9-1.36-7.2-4.1-9.94-2.73-2.73-6-4.1-9.8-4.1-3.82 0-7.2 1.48-10.15 4.43C7.58 24.13 6.1 27.5 6.1 31.32c0 3.8 1.38 7.08 4.1 9.8 2.74 2.74 6 4.1 9.82 4.1"/></g></g></g></g></svg>