<svg xmlns="http://www.w3.org/2000/svg" width="69.956" height="66.787" viewBox="0 0 69.956253 66.787498"><defs><clipPath id="a"><path d="M0 0h55.97v53.43H0V0z"/></clipPath></defs><g><g><g clip-path="url(#a)" transform="matrix(1.25 0 0 -1.25 0 66.787)"><g><path fill="#00bc9c" d="M11.57 0c.43 0 .87.15 1.3.46l15.08 7.92L43.1.46c.43-.3.88-.45 1.36-.45.9 0 1.36.56 1.36 1.7 0 .08 0 .2-.03.35-.03.15-.04.25-.04.3L42.9 19.16l12.3 11.9c.5.56.76 1.13.76 1.7 0 .64-.6 1.14-1.8 1.48l-16.9 2.47-7.62 15.34c-.48.9-1.04 1.37-1.7 1.37-.68 0-1.22-.46-1.6-1.36L18.7 36.72l-16.9-2.47C.62 33.9 0 33.4 0 32.76c0-.52.28-1.08.85-1.7L13.06 19.2 10.2 2.34c0-.1 0-.2-.03-.36-.02-.15-.03-.25-.03-.3 0-1.12.48-1.68 1.43-1.68M22.3 31.85l5.65 11.5 5.72-11.5 12.67-1.82-9.16-8.97 2.14-12.6-11.37 5.9-11.3-5.9 2.14 12.6-9.18 8.97 12.68 1.82z"/></g></g></g></g></svg>