<svg xmlns="http://www.w3.org/2000/svg" width="86.717" height="57.027" viewBox="0 0 86.716934 57.026669"><defs><clipPath id="a"><path d="M0 0h65.04v42.77H0z"/></clipPath></defs><g><g><g clip-path="url(#a)" transform="matrix(1.333 0 0 -1.333 0 57.027)"><g><path fill="#506a85" d="M0 42.77v-42h22.23c2.38.27 4.72 1.1 7.02 2.48 1.4.82 2.5 2.13 3.31 3.93.83 1.8 1.24 3.83 1.24 6.08v2.6c-.04 1.65-.71 3.38-2.02 5.2-1.2 1.73-3.05 2.6-5.52 2.6l1.56.26c1.3.3 2.38 1.2 3.25 2.7.87 1.5 1.3 3.15 1.3 4.97 0 3.5-1.03 6.24-3.1 8.2-2.05 1.98-4.83 2.97-8.34 2.97zM9.23 26v9.36h11.7l.65-.13c.7-.13 1.24-.62 1.63-1.46.4-.85.6-1.8.6-2.83 0-1.73-.26-3-.76-3.77-.5-.78-1.42-1.17-2.76-1.17zM20.4 8.32H9.24V19.5h11.7l1.17-.13c.65-.04 1.34-.56 2.08-1.56.7-.94 1.04-2.3 1.04-4.02 0-3.64-1.6-5.46-4.8-5.46m22.93 22.04c-1.94-1.1-3.44-2.27-4.48-3.55-1.04-1.27-1.88-3-2.53-5.15-.65-2.17-.98-4.06-.98-5.66v-1.7c0-2.64.95-5.52 2.86-8.64 1.04-1.74 2.7-3.1 4.94-4.13C45.4.5 47.96 0 50.83 0l3.5.13c2.26.04 4.54 1 6.84 2.86 2.3 1.8 3.44 4.5 3.44 8.05h-7l-.14-1.17c-.04-.7-.63-1.4-1.75-2.14-1.12-.74-2.66-1.1-4.6-1.1l-1.7.12c-1.2 0-2.4.6-3.58 1.82-1.17 1.2-1.75 3-1.75 5.33h20.8l.13 1.96c.22 3-.5 6.26-2.15 9.82-.9 1.9-2.43 3.45-4.58 4.64-2.14 1.2-4.62 1.8-7.44 1.8-2.82 0-5.3-.6-7.48-1.76m.6-10.86l.38 1.56c.26 1.13 1 2.23 2.2 3.32C47.76 25.46 49.28 26 51.1 26c1 0 1.94-.22 2.85-.65.9-.43 1.56-.97 1.95-1.62.87-1.43 1.3-2.84 1.3-4.23zm-1.7 15.73H58.9v5.07H42.24z"/></g></g></g></g></svg>