<svg xmlns="http://www.w3.org/2000/svg" width="43.333" height="69.333" viewBox="0 0 43.333332 69.333336"><defs><clipPath id="a"><path d="M0 0h32.5v52H0z"/></clipPath></defs><g><g><g clip-path="url(#a)" transform="matrix(1.333 0 0 -1.333 0 69.333)"><g><path fill="#a3b1bf" d="M4.75 47.26C1.58 44.09 0 40.26 0 35.76c0-5.5 1.9-11.93 5.66-19.25 1.38-2.68 3.12-5.66 5.2-8.93 2.08-3.27 3.87-5.8 5.4-7.57l4.02 5.46c2.73 3.64 5.46 8.47 8.2 14.5 2.68 5.98 4.02 11.24 4.02 15.8 0 4.5-1.58 8.33-4.75 11.5-3.16 3.16-7 4.74-11.5 4.74s-8.34-1.58-11.5-4.75m2.8-11.63c0 2.43.84 4.5 2.56 6.18 1.72 1.7 3.77 2.53 6.15 2.53 2.43 0 4.5-.86 6.24-2.57 1.72-1.7 2.6-3.76 2.6-6.14 0-2.43-.9-4.5-2.64-6.24-1.76-1.73-3.83-2.6-6.2-2.6-2.4 0-4.44.87-6.15 2.6-1.7 1.73-2.56 3.8-2.56 6.24"/></g></g></g></g></svg>