<svg xmlns="http://www.w3.org/2000/svg" width="79.733" height="79.733" viewBox="0 0 79.73333 79.73333"><defs><clipPath id="a"><path d="M0 0h59.8v59.8H0z"/></clipPath></defs><g><g><g clip-path="url(#a)" transform="matrix(1.333 0 0 -1.333 0 79.733)"><g><path fill="#506a85" d="M4.94 35.23c.9 3.94 2.6 7.47 5.1 10.6 2.5 3.1 5.47 5.52 8.94 7.2.22-.16.74-.88 1.56-2.14 3.2-4.7 5.85-8.87 7.93-12.55-7.8-2.08-15.64-3.12-23.53-3.12m26.78-5.46c-2.3-.78-4.68-1.9-7.15-3.35-2.47-1.45-4.5-2.93-6.1-4.45-2.65-2.47-4.88-5.05-6.7-7.74-.18-.26-.46-.7-.85-1.36-4.33 4.85-6.5 10.53-6.5 17.03v.9c9.5 0 18.2 1.22 26.13 3.65.9-1.6 1.6-3.08 2.08-4.42-.3 0-.6-.1-.9-.26m-18.08-19.5l.52-.4c-.1 0-.26.14-.52.4M46.67 49c-2.82-3.76-7.24-6.8-13.26-9.1-2.9 5.38-6.06 10.32-9.48 14.83 1.86.52 3.86.78 5.98.78 6.28 0 11.92-2.1 16.9-6.36zm4.36-40.23c5.85 5.85 8.77 12.9 8.77 21.13 0 8.23-2.92 15.27-8.77 21.12-5.86 5.85-12.9 8.78-21.13 8.78-8.23 0-15.28-2.93-21.13-8.78S0 38.12 0 29.9c0-8.23 2.92-15.28 8.77-21.13S21.67 0 29.9 0c8.23 0 15.28 2.92 21.13 8.77m-16.58 17.1c2.6-6.8 4.42-13.26 5.46-19.37-3.37-1.4-6.7-2.08-10-2.08-5.76 0-11 1.82-15.73 5.46l.13.13c4 7.3 10.66 12.53 20.02 15.74zm.9 10.14c3.48 1.44 6.6 3.24 9.37 5.4 2.17 1.74 3.64 3.1 4.42 4.1l.52.65c3.8-4.64 5.72-9.97 5.72-16-.3.1-1.2.27-2.73.53-5.2.82-10.18.95-14.95.4l-.65 1.3c-.52 1.2-1.08 2.42-1.7 3.63M52.6 26.6c1.46-.34 2.3-.58 2.52-.7-1.26-7.42-4.9-13.1-10.92-17.04-1.04 5.8-2.7 11.87-4.94 18.2 4.38.74 8.82.58 13.33-.46"/></g></g></g></g></svg>