<svg xmlns="http://www.w3.org/2000/svg" width="161.705" height="40" viewBox="0 0 161.70534 40"><defs><clipPath id="a"><path d="M0 30h121.28V0H0z"/></clipPath></defs><g><g><g clip-path="url(#a)" transform="matrix(1.333 0 0 -1.333 0 40)"><path fill="#506a85" d="M114.56 0h6.72v6.72h-6.72zm-11.88 13.5L90.55 30H82.6V0h7.72v17.36L103 0h7.46v30h-7.78zM25.44 20C25.44 25.59 21.67 30 15 30H0v-6.75h13.85c2.02 0 3.73-1.17 3.73-3.2 0-2.1-1.7-3.23-3.73-3.23H0V0h7.73v10.07h3.96L16.7 0h8.86l-6.12 11.02c2.8 1 5.98 3.78 5.98 9M29.78 0h21.98v6.75H37.5v5.08h13.94v6.75H37.5v4.67h14.26V30H29.78zm26.4 0h22v6.75H63.9v5.08h13.93v6.75H63.92v4.67h14.25V30H56.19z"/></g></g></g></svg>