<?xml version="1.0" encoding="UTF-8" standalone="no"?>
<svg
   xmlns:dc="http://purl.org/dc/elements/1.1/"
   xmlns:cc="http://creativecommons.org/ns#"
   xmlns:rdf="http://www.w3.org/1999/02/22-rdf-syntax-ns#"
   xmlns:svg="http://www.w3.org/2000/svg"
   xmlns="http://www.w3.org/2000/svg"
   viewBox="0 0 50.266933 84.933601"
   height="84.933601"
   width="50.266933"
   xml:space="preserve"
   id="svg2"
   version="1.1"><metadata
     id="metadata8"><rdf:RDF><cc:Work
         rdf:about=""><dc:format>image/svg+xml</dc:format><dc:type
           rdf:resource="http://purl.org/dc/dcmitype/StillImage" /></cc:Work></rdf:RDF></metadata><defs
     id="defs6"><clipPath
       id="clipPath18"
       clipPathUnits="userSpaceOnUse"><path
         id="path16"
         d="M 0,0 H 37.7 V 63.7 H 0 Z" /></clipPath></defs><g
     transform="matrix(1.3333333,0,0,-1.3333333,0,84.9336)"
     id="g10"><g
       id="g12"><g
         clip-path="url(#clipPath18)"
         id="g14"><g
           transform="translate(6.5,63.7002)"
           id="g20"><path
             id="path22"
             style="fill:#a3b1bf;fill-opacity:1;fill-rule:nonzero;stroke:none"
             d="M 0,0 C -1.777,0 -3.305,-0.64 -4.583,-1.917 -5.861,-3.196 -6.5,-4.724 -6.5,-6.5 v -50.7 c 0,-1.734 0.65,-3.25 1.95,-4.55 1.3,-1.3 2.816,-1.95 4.55,-1.95 h 24.7 c 1.776,0 3.304,0.639 4.583,1.917 1.277,1.279 1.917,2.806 1.917,4.583 v 50.7 c 0,1.82 -0.629,3.358 -1.885,4.615 C 28.058,-0.629 26.52,0 24.7,0 Z m 9.23,-60.158 c -0.954,0.629 -1.43,1.398 -1.43,2.307 0,0.911 0.476,1.681 1.43,2.309 0.953,0.628 1.993,0.941 3.12,0.941 1.213,0 2.275,-0.292 3.185,-0.877 0.91,-0.585 1.365,-1.376 1.365,-2.373 0,-0.952 -0.466,-1.732 -1.398,-2.339 -0.932,-0.606 -1.982,-0.911 -3.152,-0.911 -1.127,0 -2.167,0.316 -3.12,0.943 M -1.3,-8.45 H 26 v -42.9 H -1.3 Z" /></g></g></g></g></svg>