<?xml version="1.0" encoding="UTF-8" standalone="no"?>
<svg
   xmlns:dc="http://purl.org/dc/elements/1.1/"
   xmlns:cc="http://creativecommons.org/ns#"
   xmlns:rdf="http://www.w3.org/1999/02/22-rdf-syntax-ns#"
   xmlns:svg="http://www.w3.org/2000/svg"
   xmlns="http://www.w3.org/2000/svg"
   viewBox="0 0 56.841125 81.257378"
   height="81.257378"
   width="56.841125"
   xml:space="preserve"
   version="1.1"
   id="svg2"><metadata
     id="metadata8"><rdf:RDF><cc:Work
         rdf:about=""><dc:format>image/svg+xml</dc:format><dc:type
           rdf:resource="http://purl.org/dc/dcmitype/StillImage" /></cc:Work></rdf:RDF></metadata><defs
     id="defs6"><clipPath
       id="clipPath16"
       clipPathUnits="userSpaceOnUse"><path
         id="path18"
         d="m 0,0 45.473,0 0,65.006 L 0,65.006 0,0 Z" /></clipPath></defs><g
     transform="matrix(1.25,0,0,-1.25,0,81.257375)"
     id="g10"><g
       id="g12"><g
         clip-path="url(#clipPath16)"
         id="g14"><g
           transform="translate(13.5842,2.6059)"
           id="g20"><path
             id="path22"
             style="fill:#506a85;fill-opacity:1;fill-rule:nonzero;stroke:none"
             d="m 0,0 c 3.033,-1.776 6.066,-2.643 9.1,-2.6 3.12,-0.086 6.196,0.78 9.23,2.6 l 0,6.76 L 0,6.76 0,0 Z m 17.94,10.66 c 0,2.6 0.52,5.07 1.56,7.41 0.476,1.083 1.072,2.199 1.787,3.348 0.716,1.147 1.322,2.068 1.82,2.762 0.498,0.693 1.246,1.668 2.243,2.925 l 2.08,2.73 c 3.25,4.376 4.723,8.905 4.42,13.585 -0.477,5.286 -2.535,9.75 -6.175,13.39 -3.727,3.726 -9.252,5.59 -16.575,5.59 -7.28,0 -12.784,-1.864 -16.51,-5.59 -3.77,-3.77 -5.807,-8.234 -6.11,-13.39 -0.26,-3.034 0.27,-6.002 1.592,-8.905 1.322,-2.904 2.958,-5.374 4.908,-7.41 1.95,-2.124 3.672,-4.647 5.167,-7.572 C -0.357,16.608 0.39,13.65 0.39,10.66 l 17.55,0 z M 9.1,55.64 c 9.88,0 15.166,-4.247 15.86,-12.74 0.086,-1.127 -0.065,-2.492 -0.455,-4.095 -0.174,-0.694 -0.889,-2.037 -2.145,-4.03 -0.044,-0.087 -0.325,-0.499 -0.845,-1.235 l -1.56,-2.21 C 19.435,30.593 19.153,30.203 19.11,30.16 15.296,25.046 12.87,20.453 11.83,16.38 l -5.33,0 c -1.04,3.986 -3.467,8.58 -7.28,13.78 -0.087,0.086 -0.434,0.563 -1.04,1.43 -0.607,0.866 -0.932,1.343 -0.975,1.43 -0.044,0.086 -0.336,0.498 -0.878,1.235 -0.542,0.736 -0.834,1.148 -0.877,1.235 l -0.26,0.39 c -0.13,0.26 -0.271,0.52 -0.422,0.78 -0.153,0.26 -0.283,0.52 -0.39,0.78 -0.109,0.26 -0.163,0.411 -0.163,0.455 0,0.043 -0.13,0.433 -0.39,1.17 -0.26,0.736 -0.369,1.148 -0.325,1.235 0.043,0.043 0,0.465 -0.13,1.268 -0.13,0.801 -0.13,1.245 0,1.332 0.693,8.493 5.936,12.74 15.73,12.74" /></g></g></g></g></svg>