<?xml version="1.0" encoding="UTF-8" standalone="no"?>
<svg
   xmlns:dc="http://purl.org/dc/elements/1.1/"
   xmlns:cc="http://creativecommons.org/ns#"
   xmlns:rdf="http://www.w3.org/1999/02/22-rdf-syntax-ns#"
   xmlns:svg="http://www.w3.org/2000/svg"
   xmlns="http://www.w3.org/2000/svg"
   viewBox="0 0 77.653336 76.26667"
   height="76.26667"
   width="77.653336"
   xml:space="preserve"
   id="svg2"
   version="1.1"><metadata
     id="metadata8"><rdf:RDF><cc:Work
         rdf:about=""><dc:format>image/svg+xml</dc:format><dc:type
           rdf:resource="http://purl.org/dc/dcmitype/StillImage" /></cc:Work></rdf:RDF></metadata><defs
     id="defs6"><clipPath
       id="clipPath18"
       clipPathUnits="userSpaceOnUse"><path
         id="path16"
         d="M 0,0 H 58.24 V 57.2 H 0 Z" /></clipPath></defs><g
     transform="matrix(1.3333333,0,0,-1.3333333,0,76.266667)"
     id="g10"><g
       id="g12"><g
         clip-path="url(#clipPath18)"
         id="g14"><g
           transform="translate(17.81,24.18)"
           id="g20"><path
             id="path22"
             style="fill:#506a85;fill-opacity:1;fill-rule:nonzero;stroke:none"
             d="m 0,0 c -3.034,0 -6.479,-0.607 -10.335,-1.82 -2.21,-0.694 -4.009,-1.929 -5.395,-3.705 -1.387,-1.777 -2.08,-3.965 -2.08,-6.565 0,-2.6 0.606,-4.81 1.82,-6.63 1.213,-1.82 2.838,-3.076 4.875,-3.77 3.12,-1.126 5.915,-1.69 8.385,-1.69 0.086,0 0.173,0.044 0.26,0.13 l 0.26,-0.13 h 0.26 c 3.596,0 6.846,0.737 9.75,2.21 5.026,2.34 7.54,6.543 7.54,12.61 0,3.813 -2.254,7.67 -6.76,11.57 -2.167,2.036 -3.25,3.423 -3.25,4.16 0,0.693 0.823,1.863 2.47,3.51 2.946,2.426 4.42,5.85 4.42,10.27 0,2.73 -0.315,4.842 -0.943,6.337 -0.628,1.495 -1.787,2.676 -3.477,3.543 0.476,0.26 1.3,0.39 2.47,0.39 3.38,0.606 5.07,1.386 5.07,2.34 v 0.26 H 0.39 c -3.294,0 -6.565,-1.105 -9.815,-3.315 -1.474,-0.997 -2.72,-2.481 -3.738,-4.453 -1.018,-1.972 -1.527,-4.106 -1.527,-6.402 0,-5.027 1.603,-8.494 4.81,-10.4 2.036,-1.3 4.42,-1.95 7.15,-1.95 h 0.91 L -1.95,5.59 C -1.95,3.813 -1.257,1.95 0.13,0 Z m -0.13,-2.99 c 2.686,0 4.896,-0.672 6.63,-2.015 1.733,-1.344 2.686,-3.185 2.86,-5.525 0.173,-2.21 -0.629,-4.117 -2.405,-5.72 -1.647,-1.474 -3.89,-2.34 -6.728,-2.6 -2.838,-0.26 -5.427,0.217 -7.767,1.43 -2.34,1.213 -3.597,2.99 -3.77,5.33 -0.174,2.426 0.834,4.528 3.022,6.305 2.188,1.776 4.561,2.708 7.118,2.795 z M 5.46,21.97 C 6.24,19.456 6.175,17.03 5.265,14.69 4.355,12.35 2.99,10.92 1.17,10.4 0.823,10.313 0.433,10.27 0,10.27 c -1.647,0 -3.185,0.715 -4.615,2.145 -1.387,1.386 -2.384,3.163 -2.99,5.33 -0.607,2.166 -0.585,4.528 0.065,7.085 0.78,2.166 2.036,3.51 3.77,4.03 0.433,0.086 0.866,0.13 1.3,0.13 3.986,0 6.63,-2.34 7.93,-7.02 M 30.68,20.41 H 24.57 V 10.66 H 14.82 V 4.55 h 9.75 V -5.2 h 6.11 v 9.75 h 9.75 v 6.11 h -9.75 z" /></g></g></g></g></svg>