<?xml version="1.0" encoding="UTF-8" standalone="no"?>
<svg
   xmlns:dc="http://purl.org/dc/elements/1.1/"
   xmlns:cc="http://creativecommons.org/ns#"
   xmlns:rdf="http://www.w3.org/1999/02/22-rdf-syntax-ns#"
   xmlns:svg="http://www.w3.org/2000/svg"
   xmlns="http://www.w3.org/2000/svg"
   viewBox="0 0 79.73333 64.653336"
   height="64.653336"
   width="79.73333"
   xml:space="preserve"
   id="svg2"
   version="1.1"><metadata
     id="metadata8"><rdf:RDF><cc:Work
         rdf:about=""><dc:format>image/svg+xml</dc:format><dc:type
           rdf:resource="http://purl.org/dc/dcmitype/StillImage" /></cc:Work></rdf:RDF></metadata><defs
     id="defs6"><clipPath
       id="clipPath18"
       clipPathUnits="userSpaceOnUse"><path
         id="path16"
         d="M 0,0 H 59.8 V 48.49 H 0 Z" /></clipPath></defs><g
     transform="matrix(1.3333333,0,0,-1.3333333,0,64.653333)"
     id="g10"><g
       id="g12"><g
         clip-path="url(#clipPath18)"
         id="g14"><g
           transform="translate(52.78,40.82)"
           id="g20"><path
             id="path22"
             style="fill:#506a85;fill-opacity:1;fill-rule:nonzero;stroke:none"
             d="M 0,0 C 2.73,1.646 4.506,3.9 5.33,6.76 2.643,5.373 0.043,4.42 -2.47,3.9 c -2.34,2.513 -5.287,3.77 -8.84,3.77 -3.424,0 -6.337,-1.192 -8.742,-3.575 -2.406,-2.384 -3.608,-5.265 -3.608,-8.645 0,-1.04 0.13,-1.95 0.39,-2.73 -10.184,0.303 -18.634,4.55 -25.35,12.74 -1.127,-2.037 -1.69,-4.074 -1.69,-6.11 0,-4.334 1.82,-7.757 5.46,-10.27 -2.08,0.173 -3.9,0.693 -5.46,1.56 v -0.13 c 0,-3.034 0.943,-5.666 2.828,-7.897 1.884,-2.233 4.192,-3.63 6.922,-4.193 -1.04,-0.26 -2.124,-0.39 -3.25,-0.39 -1.084,0 -1.82,0.086 -2.21,0.26 0.736,-2.427 2.134,-4.442 4.193,-6.045 2.057,-1.604 4.473,-2.449 7.247,-2.535 -4.464,-3.467 -9.534,-5.2 -15.21,-5.2 -1.214,0 -2.21,0.043 -2.99,0.13 5.676,-3.64 11.96,-5.46 18.85,-5.46 7.063,0 13.346,1.798 18.85,5.395 5.46,3.553 9.49,7.951 12.09,13.195 2.6,5.2 3.9,10.616 3.9,16.25 v 1.56 C 3.38,-2.6 5.416,-0.477 7.02,1.95 4.723,0.996 2.383,0.346 0,0" /></g></g></g></g></svg>