<?xml version="1.0" encoding="UTF-8" standalone="no"?>
<svg
   xmlns:dc="http://purl.org/dc/elements/1.1/"
   xmlns:cc="http://creativecommons.org/ns#"
   xmlns:rdf="http://www.w3.org/1999/02/22-rdf-syntax-ns#"
   xmlns:svg="http://www.w3.org/2000/svg"
   xmlns="http://www.w3.org/2000/svg"
   viewBox="0 0 82.072929 68.466797"
   height="68.466797"
   width="82.072929"
   xml:space="preserve"
   id="svg2"
   version="1.1"><metadata
     id="metadata8"><rdf:RDF><cc:Work
         rdf:about=""><dc:format>image/svg+xml</dc:format><dc:type
           rdf:resource="http://purl.org/dc/dcmitype/StillImage" /></cc:Work></rdf:RDF></metadata><defs
     id="defs6"><clipPath
       id="clipPath18"
       clipPathUnits="userSpaceOnUse"><path
         id="path16"
         d="M 0,0 H 61.555 V 51.35 H 0 Z" /></clipPath></defs><g
     transform="matrix(1.3333333,0,0,-1.3333333,0,68.4668)"
     id="g10"><g
       id="g12"><g
         clip-path="url(#clipPath18)"
         id="g14"><g
           transform="translate(57.7852)"
           id="g20"><path
             id="path22"
             style="fill:#a3b1bf;fill-opacity:1;fill-rule:nonzero;stroke:none"
             d="M 0,0 C 1.04,0 1.928,0.38 2.665,1.137 3.4,1.896 3.77,2.795 3.77,3.835 v 43.68 c 0,1.04 -0.37,1.939 -1.105,2.697 C 1.928,50.97 1.04,51.35 0,51.35 h -53.95 c -1.04,0 -1.94,-0.38 -2.698,-1.138 -0.758,-0.758 -1.137,-1.657 -1.137,-2.697 V 3.835 c 0,-1.04 0.379,-1.939 1.137,-2.698 C -55.89,0.38 -54.99,0 -53.95,0 Z m -52.65,5.135 v 28.47 c 0.736,-0.737 1.365,-1.279 1.885,-1.625 7.713,-5.807 12.436,-9.404 14.17,-10.79 1.083,-0.954 2.578,-2.015 4.485,-3.185 1.516,-0.997 3.206,-1.495 5.07,-1.495 1.95,0 3.705,0.498 5.265,1.495 1.603,1.04 3.055,2.101 4.355,3.185 3.726,2.99 8.45,6.586 14.17,10.79 0.562,0.346 1.213,0.888 1.95,1.625 V 5.135 Z m 0,41.08 H -1.3 v -2.21 c 0,-0.78 -0.175,-1.495 -0.52,-2.145 -1.04,-2.514 -2.514,-4.442 -4.42,-5.785 l -13.39,-10.14 -3.445,-2.665 c -1.56,-1.084 -2.839,-1.625 -3.835,-1.625 h -0.13 c -0.564,0 -1.17,0.151 -1.82,0.455 -1.084,0.563 -2.405,1.43 -3.965,2.6 l -7.41,5.72 -7.475,5.655 c -1.214,0.91 -2.319,2.101 -3.315,3.575 -1.084,1.69 -1.625,3.141 -1.625,4.355 z" /></g></g></g></g></svg>