<?xml version="1.0" encoding="UTF-8" standalone="no"?>
<svg
   xmlns:dc="http://purl.org/dc/elements/1.1/"
   xmlns:cc="http://creativecommons.org/ns#"
   xmlns:rdf="http://www.w3.org/1999/02/22-rdf-syntax-ns#"
   xmlns:svg="http://www.w3.org/2000/svg"
   xmlns="http://www.w3.org/2000/svg"
   viewBox="0 0 43.333332 69.333336"
   height="69.333336"
   width="43.333332"
   xml:space="preserve"
   id="svg2"
   version="1.1"><metadata
     id="metadata8"><rdf:RDF><cc:Work
         rdf:about=""><dc:format>image/svg+xml</dc:format><dc:type
           rdf:resource="http://purl.org/dc/dcmitype/StillImage" /></cc:Work></rdf:RDF></metadata><defs
     id="defs6"><clipPath
       id="clipPath18"
       clipPathUnits="userSpaceOnUse"><path
         id="path16"
         d="M 0,0 H 32.5 V 52 H 0 Z" /></clipPath></defs><g
     transform="matrix(1.3333333,0,0,-1.3333333,0,69.333333)"
     id="g10"><g
       id="g12"><g
         clip-path="url(#clipPath18)"
         id="g14"><g
           transform="translate(4.745,47.255)"
           id="g20"><path
             id="path22"
             style="fill:#a3b1bf;fill-opacity:1;fill-rule:nonzero;stroke:none"
             d="m 0,0 c -3.164,-3.164 -4.745,-6.999 -4.745,-11.505 0,-5.504 1.885,-11.917 5.655,-19.24 1.386,-2.687 3.12,-5.666 5.2,-8.937 2.08,-3.273 3.878,-5.796 5.395,-7.573 l 4.03,5.46 c 2.73,3.64 5.46,8.471 8.19,14.495 2.686,5.98 4.03,11.245 4.03,15.795 0,4.506 -1.582,8.341 -4.745,11.505 C 19.846,3.163 16.011,4.745 11.505,4.745 6.998,4.745 3.163,3.163 0,0 m 2.795,-11.635 c 0,2.426 0.855,4.485 2.568,6.175 1.711,1.69 3.758,2.535 6.142,2.535 2.426,0 4.506,-0.856 6.24,-2.567 1.733,-1.713 2.6,-3.76 2.6,-6.143 0,-2.427 -0.878,-4.507 -2.633,-6.24 -1.754,-1.734 -3.824,-2.6 -6.207,-2.6 -2.384,0 -4.431,0.866 -6.142,2.6 -1.713,1.733 -2.568,3.813 -2.568,6.24" /></g></g></g></g></svg>