<?xml version="1.0" encoding="UTF-8" standalone="no"?>
<svg
   xmlns:dc="http://purl.org/dc/elements/1.1/"
   xmlns:cc="http://creativecommons.org/ns#"
   xmlns:rdf="http://www.w3.org/1999/02/22-rdf-syntax-ns#"
   xmlns:svg="http://www.w3.org/2000/svg"
   xmlns="http://www.w3.org/2000/svg"
   viewBox="0 0 64.079124 64.349625"
   height="64.349625"
   width="64.079124"
   xml:space="preserve"
   version="1.1"
   id="svg2"><metadata
     id="metadata8"><rdf:RDF><cc:Work
         rdf:about=""><dc:format>image/svg+xml</dc:format><dc:type
           rdf:resource="http://purl.org/dc/dcmitype/StillImage" /></cc:Work></rdf:RDF></metadata><defs
     id="defs6"><clipPath
       id="clipPath16"
       clipPathUnits="userSpaceOnUse"><path
         id="path18"
         d="m 0,0 51.263,0 0,51.48 L 0,51.48 0,0 Z" /></clipPath></defs><g
     transform="matrix(1.25,0,0,-1.25,0,64.349625)"
     id="g10"><g
       id="g12"><g
         clip-path="url(#clipPath16)"
         id="g14"><g
           transform="translate(37.83,20.2797)"
           id="g20"><path
             id="path22"
             style="fill:#506a85;fill-opacity:1;fill-rule:nonzero;stroke:none"
             d="m 0,0 c 1.993,3.163 2.99,6.673 2.99,10.53 0,5.546 -2.08,10.378 -6.24,14.495 -4.204,4.116 -9.057,6.175 -14.56,6.175 -5.547,0 -10.27,-1.972 -14.17,-5.915 -3.9,-3.944 -5.85,-8.689 -5.85,-14.235 0,-5.547 2.058,-10.379 6.175,-14.495 4.116,-4.117 8.948,-6.175 14.495,-6.175 3.596,0 6.976,0.91 10.14,2.73 L 5.33,-19.24 c 1.386,-1.386 2.86,-1.386 4.42,0 l 2.99,2.99 c 1.04,1.213 0.91,2.556 -0.39,4.03 L 0,0 Z m -17.81,24.96 c 3.856,0 7.236,-1.452 10.14,-4.355 2.946,-2.947 4.42,-6.305 4.42,-10.075 0,-3.9 -1.365,-7.215 -4.095,-9.945 -2.73,-2.73 -6.002,-4.095 -9.815,-4.095 -3.814,0 -7.194,1.473 -10.14,4.42 -2.947,2.946 -4.42,6.326 -4.42,10.14 0,3.813 1.365,7.085 4.095,9.815 2.73,2.73 6.001,4.095 9.815,4.095" /></g></g></g></g></svg>