<?xml version="1.0" encoding="UTF-8" standalone="no"?>
<svg
   xmlns:dc="http://purl.org/dc/elements/1.1/"
   xmlns:cc="http://creativecommons.org/ns#"
   xmlns:rdf="http://www.w3.org/1999/02/22-rdf-syntax-ns#"
   xmlns:svg="http://www.w3.org/2000/svg"
   xmlns="http://www.w3.org/2000/svg"
   viewBox="0 0 75.237503 66.787498"
   height="66.787498"
   width="75.237503"
   xml:space="preserve"
   version="1.1"
   id="svg2"><metadata
     id="metadata8"><rdf:RDF><cc:Work
         rdf:about=""><dc:format>image/svg+xml</dc:format><dc:type
           rdf:resource="http://purl.org/dc/dcmitype/StillImage" /></cc:Work></rdf:RDF></metadata><defs
     id="defs6"><clipPath
       id="clipPath16"
       clipPathUnits="userSpaceOnUse"><path
         id="path18"
         d="m 0,0 60.19,0 0,53.43 L 0,53.43 0,0 Z" /></clipPath></defs><g
     transform="matrix(1.25,0,0,-1.25,0,66.7875)"
     id="g10"><g
       id="g12"><g
         clip-path="url(#clipPath16)"
         id="g14"><g
           transform="translate(1.17,30.94)"
           id="g20"><path
             id="path22"
             style="fill:#506a85;fill-opacity:1;fill-rule:nonzero;stroke:none"
             d="M 0,0 C 1.256,-3.077 2.99,-5.829 5.2,-8.255 5.72,-8.862 6.153,-9.317 6.5,-9.62 l 20.605,-20.54 c 0.476,-0.52 1.083,-0.78 1.82,-0.78 0.693,0 1.343,0.26 1.95,0.78 l 20.475,20.475 0.26,0.13 c 0.086,0.13 0.227,0.314 0.423,0.553 0.194,0.237 0.422,0.487 0.682,0.747 0.91,0.996 1.798,2.145 2.665,3.445 2.426,3.683 3.64,7.28 3.64,10.79 0,3.033 -0.477,5.611 -1.43,7.735 -2.687,5.85 -7.627,8.775 -14.82,8.775 -1.517,0 -2.925,-0.239 -4.225,-0.715 -3.294,-1.17 -6.5,-3.315 -9.62,-6.435 -2.21,2.166 -4.117,3.726 -5.72,4.68 -2.774,1.646 -5.46,2.47 -8.06,2.47 C 9.988,22.49 5.98,21.038 3.12,18.135 0.26,15.231 -1.17,11.18 -1.17,5.98 -1.17,3.943 -0.78,1.95 0,0 m 15.145,17.16 c 1.126,0 2.296,-0.282 3.51,-0.845 3.25,-1.517 6.001,-3.705 8.255,-6.565 0.52,-0.694 1.191,-1.04 2.015,-1.04 0.823,0 1.516,0.346 2.08,1.04 1.256,1.56 2.838,3.055 4.745,4.485 2.6,1.95 4.94,2.925 7.02,2.925 7.28,0 10.92,-3.727 10.92,-11.18 0,-1.43 -0.304,-2.882 -0.91,-4.355 -1.127,-2.644 -2.514,-4.789 -4.16,-6.435 l -9.815,-9.815 -9.88,-9.88 -9.1,9.1 L 9.23,-4.81 C 8.623,-4.16 7.93,-3.272 7.15,-2.145 5.156,0.758 4.16,3.466 4.16,5.98 c 0,7.453 3.661,11.18 10.985,11.18" /></g></g></g></g></svg>