<?xml version="1.0" encoding="UTF-8" standalone="no"?>
<svg
   xmlns:dc="http://purl.org/dc/elements/1.1/"
   xmlns:cc="http://creativecommons.org/ns#"
   xmlns:rdf="http://www.w3.org/1999/02/22-rdf-syntax-ns#"
   xmlns:svg="http://www.w3.org/2000/svg"
   xmlns="http://www.w3.org/2000/svg"
   viewBox="0 0 19.875626 34.800251"
   height="34.800251"
   width="19.875626"
   xml:space="preserve"
   version="1.1"
   id="svg2"><metadata
     id="metadata8"><rdf:RDF><cc:Work
         rdf:about=""><dc:format>image/svg+xml</dc:format><dc:type
           rdf:resource="http://purl.org/dc/dcmitype/StillImage" /></cc:Work></rdf:RDF></metadata><defs
     id="defs6"><clipPath
       id="clipPath16"
       clipPathUnits="userSpaceOnUse"><path
         id="path18"
         d="m 0,0 15.9,0 0,27.84 L 0,27.84 0,0 Z" /></clipPath></defs><g
     transform="matrix(1.25,0,0,-1.25,0,34.80025)"
     id="g10"><g
       id="g12"><g
         clip-path="url(#clipPath16)"
         id="g14"><g
           transform="translate(0.7805,0.7805)"
           id="g20"><path
             id="path22"
             style="fill:#ffffff;fill-opacity:1;fill-rule:nonzero;stroke:none"
             d="M 0,0 C 1.04,-1.041 2,-1.041 2.88,0 L 14.4,11.64 c 0.96,0.96 0.96,1.959 0,3 L 2.88,26.28 C 2,27.32 1.04,27.32 0,26.28 -1.041,25.4 -1.041,24.44 0,23.4 L 9.48,13.08 0,2.88 C -1.041,1.839 -1.041,0.879 0,0" /></g></g></g></g></svg>