<?xml version="1.0" encoding="UTF-8" standalone="no"?>
<svg
   xmlns:dc="http://purl.org/dc/elements/1.1/"
   xmlns:cc="http://creativecommons.org/ns#"
   xmlns:rdf="http://www.w3.org/1999/02/22-rdf-syntax-ns#"
   xmlns:svg="http://www.w3.org/2000/svg"
   xmlns="http://www.w3.org/2000/svg"
   viewBox="0 0 66.9272 86.493332"
   height="86.493332"
   width="66.9272"
   xml:space="preserve"
   id="svg2"
   version="1.1"><metadata
     id="metadata8"><rdf:RDF><cc:Work
         rdf:about=""><dc:format>image/svg+xml</dc:format><dc:type
           rdf:resource="http://purl.org/dc/dcmitype/StillImage" /></cc:Work></rdf:RDF></metadata><defs
     id="defs6"><clipPath
       id="clipPath18"
       clipPathUnits="userSpaceOnUse"><path
         id="path16"
         d="M 0,0 H 50.195 V 64.87 H 0 Z" /></clipPath></defs><g
     transform="matrix(1.3333333,0,0,-1.3333333,0,86.493333)"
     id="g10"><g
       id="g12"><g
         clip-path="url(#clipPath18)"
         id="g14"><g
           transform="translate(22.8304,20.735)"
           id="g20"><path
             id="path22"
             style="fill:#506a85;fill-opacity:1;fill-rule:nonzero;stroke:none"
             d="m 0,0 c 0.866,-0.607 1.538,-1.051 2.015,-1.333 0.476,-0.282 1.126,-0.574 1.95,-0.877 0.823,-0.304 1.733,-0.499 2.73,-0.585 6.976,-0.52 12.436,2.275 16.38,8.385 3.986,6.11 5.416,12.978 4.29,20.605 -0.78,6.24 -3.9,10.985 -9.36,14.235 -5.46,3.25 -11.744,4.485 -18.85,3.705 -5.764,-0.737 -10.812,-3.164 -15.145,-7.28 -4.334,-4.16 -6.609,-9.23 -6.825,-15.21 -0.26,-8.45 2.773,-13.434 9.1,-14.95 0.823,2.036 1.213,3.39 1.17,4.062 -0.044,0.672 -0.52,1.788 -1.43,3.348 -0.737,1.256 -1.214,2.383 -1.43,3.38 -0.607,4.03 0.086,7.713 2.08,11.05 1.863,3.163 4.355,5.644 7.475,7.442 3.12,1.798 6.76,2.568 10.92,2.308 3.9,-0.26 7.171,-1.777 9.815,-4.55 1.863,-1.864 3.033,-4.637 3.51,-8.32 C 18.828,21.861 18.59,18.33 17.68,14.82 16.813,11.57 15.264,8.764 13.033,6.402 10.8,4.04 8.125,3.185 5.005,3.835 2.708,4.311 1.343,5.373 0.91,7.02 c -0.477,1.733 -0.39,3.683 0.26,5.85 0.216,0.78 0.91,3.011 2.08,6.695 1.776,5.46 1.105,8.796 -2.015,10.01 -2.514,0.996 -4.68,0.541 -6.5,-1.365 -1.82,-1.907 -2.839,-4.182 -3.055,-6.825 -0.217,-2.817 0.195,-5.33 1.235,-7.54 -0.304,-1.734 -0.824,-3.879 -1.56,-6.435 -1.3,-4.637 -2.34,-9.035 -3.12,-13.195 -0.304,-1.517 -0.499,-2.882 -0.585,-4.095 -0.217,-2.036 -0.109,-5.655 0.325,-10.855 2.816,2.08 4.896,4.875 6.24,8.385 1.473,3.77 2.73,8.341 3.77,13.715 C -1.669,1.148 -0.997,0.693 0,0" /></g></g></g></g></svg>