<?xml version="1.0" encoding="UTF-8" standalone="no"?>
<svg
   xmlns:dc="http://purl.org/dc/elements/1.1/"
   xmlns:cc="http://creativecommons.org/ns#"
   xmlns:rdf="http://www.w3.org/1999/02/22-rdf-syntax-ns#"
   xmlns:svg="http://www.w3.org/2000/svg"
   xmlns="http://www.w3.org/2000/svg"
   viewBox="0 0 47.125 47.125"
   height="47.125"
   width="47.125"
   xml:space="preserve"
   version="1.1"
   id="svg2"><metadata
     id="metadata8"><rdf:RDF><cc:Work
         rdf:about=""><dc:format>image/svg+xml</dc:format><dc:type
           rdf:resource="http://purl.org/dc/dcmitype/StillImage" /></cc:Work></rdf:RDF></metadata><defs
     id="defs6"><clipPath
       id="clipPath16"
       clipPathUnits="userSpaceOnUse"><path
         id="path18"
         d="m 0,0 37.7,0 0,37.7 L 0,37.7 0,0 Z" /></clipPath></defs><g
     transform="matrix(1.25,0,0,-1.25,0,47.125)"
     id="g10"><g
       id="g12"><g
         clip-path="url(#clipPath16)"
         id="g14"><g
           transform="translate(22.1,22.1)"
           id="g20"><path
             id="path22"
             style="fill:#ffffff;fill-opacity:1;fill-rule:nonzero;stroke:none"
             d="m 0,0 0,13.65 c 0,1.3 -1.084,1.95 -3.25,1.95 -2.167,0 -3.25,-0.65 -3.25,-1.95 L -6.5,0 -20.15,0 c -1.3,0 -1.95,-1.084 -1.95,-3.25 0,-2.167 0.65,-3.25 1.95,-3.25 l 13.65,0 0,-13.65 c 0,-1.3 1.083,-1.95 3.25,-1.95 2.166,0 3.25,0.65 3.25,1.95 l 0,13.65 13.65,0 c 1.3,0 1.95,1.083 1.95,3.25 C 15.6,-1.084 14.95,0 13.65,0 L 0,0 Z" /></g></g></g></g></svg>