<?xml version="1.0" encoding="UTF-8" standalone="no"?>
<svg
   xmlns:dc="http://purl.org/dc/elements/1.1/"
   xmlns:cc="http://creativecommons.org/ns#"
   xmlns:rdf="http://www.w3.org/1999/02/22-rdf-syntax-ns#"
   xmlns:svg="http://www.w3.org/2000/svg"
   xmlns="http://www.w3.org/2000/svg"
   viewBox="0 0 19.836876 34.800251"
   height="34.800251"
   width="19.836876"
   xml:space="preserve"
   version="1.1"
   id="svg2"><metadata
     id="metadata8"><rdf:RDF><cc:Work
         rdf:about=""><dc:format>image/svg+xml</dc:format><dc:type
           rdf:resource="http://purl.org/dc/dcmitype/StillImage" /></cc:Work></rdf:RDF></metadata><defs
     id="defs6"><clipPath
       id="clipPath16"
       clipPathUnits="userSpaceOnUse"><path
         id="path18"
         d="m 0,0 15.87,0 0,27.84 L 0,27.84 0,0 Z" /></clipPath></defs><g
     transform="matrix(1.25,0,0,-1.25,0,34.80025)"
     id="g10"><g
       id="g12"><g
         clip-path="url(#clipPath16)"
         id="g14"><g
           transform="translate(5.76,13.8605)"
           id="g20"><path
             id="path22"
             style="fill:#ffffff;fill-opacity:1;fill-rule:nonzero;stroke:none"
             d="m 0,0 9.36,10.32 c 0.999,1.04 0.999,2 0,2.88 -1,1.04 -1.96,1.04 -2.88,0 L -5.04,1.56 C -6,0.519 -6,-0.48 -5.04,-1.44 L 6.48,-13.08 c 0.92,-1.041 1.88,-1.041 2.88,0 0.999,0.879 0.999,1.839 0,2.88 L 0,0 Z" /></g></g></g></g></svg>