<?xml version="1.0" encoding="UTF-8" standalone="no"?>
<svg
   xmlns:dc="http://purl.org/dc/elements/1.1/"
   xmlns:cc="http://creativecommons.org/ns#"
   xmlns:rdf="http://www.w3.org/1999/02/22-rdf-syntax-ns#"
   xmlns:svg="http://www.w3.org/2000/svg"
   xmlns="http://www.w3.org/2000/svg"
   viewBox="0 0 52.938751 47.287498"
   height="47.287498"
   width="52.938751"
   xml:space="preserve"
   version="1.1"
   id="svg2"><metadata
     id="metadata8"><rdf:RDF><cc:Work
         rdf:about=""><dc:format>image/svg+xml</dc:format><dc:type
           rdf:resource="http://purl.org/dc/dcmitype/StillImage" /></cc:Work></rdf:RDF></metadata><defs
     id="defs6"><clipPath
       id="clipPath16"
       clipPathUnits="userSpaceOnUse"><path
         id="path18"
         d="m 0,0 42.351,0 0,37.83 L 0,37.83 0,0 Z" /></clipPath></defs><g
     transform="matrix(1.25,0,0,-1.25,0,47.2875)"
     id="g10"><g
       id="g12"><g
         clip-path="url(#clipPath16)"
         id="g14"><g
           transform="translate(24.0859,37.83)"
           id="g20"><path
             id="path22"
             style="fill:#a3b1bf;fill-opacity:1;fill-rule:nonzero;stroke:none"
             d="m 0,0 c -1.084,0 -1.972,-0.347 -2.665,-1.04 -1.56,-1.56 -1.56,-3.294 0,-5.2 l 12.09,-12.74 -12.09,-12.61 c -1.56,-1.907 -1.56,-3.64 0,-5.2 0.693,-0.694 1.56,-1.04 2.6,-1.04 1.04,0 1.906,0.346 2.6,1.04 l 14.69,15.34 c 0.693,0.693 1.04,1.516 1.04,2.47 0,1.04 -0.347,1.906 -1.04,2.6 L 2.535,-1.04 C 1.971,-0.347 1.126,0 0,0" /></g><g
           transform="translate(3.5427,22.4583)"
           id="g24"><path
             id="path26"
             style="fill:#a3b1bf;fill-opacity:1;fill-rule:nonzero;stroke:none"
             d="m 0,0 27.894,0 c 1.957,0 3.543,-1.586 3.543,-3.543 0,-1.957 -1.586,-3.544 -3.543,-3.544 L 0,-7.087 c -1.956,0 -3.543,1.587 -3.543,3.544 C -3.543,-1.586 -1.956,0 0,0" /></g></g></g></g></svg>