<?xml version="1.0" encoding="UTF-8" standalone="no"?>
<svg
   xmlns:dc="http://purl.org/dc/elements/1.1/"
   xmlns:cc="http://creativecommons.org/ns#"
   xmlns:rdf="http://www.w3.org/1999/02/22-rdf-syntax-ns#"
   xmlns:svg="http://www.w3.org/2000/svg"
   xmlns="http://www.w3.org/2000/svg"
   viewBox="0 0 69.956253 66.787498"
   height="66.787498"
   width="69.956253"
   xml:space="preserve"
   version="1.1"
   id="svg2"><metadata
     id="metadata8"><rdf:RDF><cc:Work
         rdf:about=""><dc:format>image/svg+xml</dc:format><dc:type
           rdf:resource="http://purl.org/dc/dcmitype/StillImage" /></cc:Work></rdf:RDF></metadata><defs
     id="defs6"><clipPath
       id="clipPath16"
       clipPathUnits="userSpaceOnUse"><path
         id="path18"
         d="m 0,0 55.965,0 0,53.43 L 0,53.43 0,0 Z" /></clipPath></defs><g
     transform="matrix(1.25,0,0,-1.25,0,66.7875)"
     id="g10"><g
       id="g12"><g
         clip-path="url(#clipPath16)"
         id="g14"><g
           transform="translate(11.57,0)"
           id="g20"><path
             id="path22"
             style="fill:#506a85;fill-opacity:1;fill-rule:nonzero;stroke:none"
             d="m 0,0 c 0.433,0 0.866,0.152 1.3,0.455 l 15.08,7.93 15.145,-7.93 C 31.958,0.152 32.413,0 32.89,0 c 0.91,0 1.365,0.564 1.365,1.69 0,0.087 -0.011,0.206 -0.032,0.358 C 34.2,2.2 34.19,2.297 34.19,2.34 L 31.33,19.175 43.615,31.07 c 0.52,0.563 0.78,1.126 0.78,1.69 0,0.65 -0.607,1.148 -1.82,1.495 l -16.9,2.47 -7.605,15.34 c -0.477,0.91 -1.04,1.365 -1.69,1.365 -0.694,0 -1.235,-0.455 -1.625,-1.365 L 7.15,36.725 -9.75,34.255 c -1.214,-0.347 -1.82,-0.845 -1.82,-1.495 0,-0.52 0.281,-1.084 0.845,-1.69 L 1.495,19.175 -1.365,2.34 C -1.365,2.254 -1.376,2.135 -1.398,1.983 -1.42,1.831 -1.43,1.734 -1.43,1.69 -1.43,0.564 -0.954,0 0,0 M 10.725,31.85 16.38,43.355 22.1,31.85 34.775,30.03 25.61,21.06 27.755,8.45 16.38,14.365 5.07,8.45 7.215,21.06 -1.95,30.03 10.725,31.85 Z" /></g></g></g></g></svg>