<?xml version="1.0" encoding="UTF-8" standalone="no"?>
<svg
   xmlns:dc="http://purl.org/dc/elements/1.1/"
   xmlns:cc="http://creativecommons.org/ns#"
   xmlns:rdf="http://www.w3.org/1999/02/22-rdf-syntax-ns#"
   xmlns:svg="http://www.w3.org/2000/svg"
   xmlns="http://www.w3.org/2000/svg"
   viewBox="0 0 86.716934 57.026669"
   height="57.026669"
   width="86.716934"
   xml:space="preserve"
   id="svg2"
   version="1.1"><metadata
     id="metadata8"><rdf:RDF><cc:Work
         rdf:about=""><dc:format>image/svg+xml</dc:format><dc:type
           rdf:resource="http://purl.org/dc/dcmitype/StillImage" /></cc:Work></rdf:RDF></metadata><defs
     id="defs6"><clipPath
       id="clipPath18"
       clipPathUnits="userSpaceOnUse"><path
         id="path16"
         d="M 0,0 H 65.038 V 42.77 H 0 Z" /></clipPath></defs><g
     transform="matrix(1.3333333,0,0,-1.3333333,0,57.026667)"
     id="g10"><g
       id="g12"><g
         clip-path="url(#clipPath18)"
         id="g14"><g
           transform="translate(0,42.77)"
           id="g20"><path
             id="path22"
             style="fill:#506a85;fill-opacity:1;fill-rule:nonzero;stroke:none"
             d="m 0,0 v -41.99 h 22.23 c 2.383,0.26 4.723,1.083 7.02,2.47 1.386,0.823 2.491,2.134 3.315,3.933 0.823,1.797 1.235,3.823 1.235,6.077 v 2.6 c -0.044,1.646 -0.715,3.38 -2.015,5.2 -1.214,1.733 -3.055,2.6 -5.525,2.6 l 1.56,0.26 c 1.3,0.303 2.383,1.203 3.25,2.698 0.866,1.494 1.3,3.152 1.3,4.972 0,3.51 -1.03,6.25 -3.087,8.222 C 27.224,-0.986 24.44,0 20.93,0 Z m 9.23,-16.77 v 9.36 h 11.7 l 0.65,-0.13 c 0.693,-0.13 1.235,-0.618 1.625,-1.463 0.39,-0.845 0.585,-1.787 0.585,-2.827 0,-1.734 -0.25,-2.99 -0.748,-3.77 -0.498,-0.78 -1.419,-1.17 -2.762,-1.17 z M 20.41,-34.45 H 9.23 v 11.18 h 11.7 l 1.17,-0.13 c 0.65,-0.044 1.343,-0.564 2.08,-1.56 0.693,-0.954 1.04,-2.297 1.04,-4.03 0,-3.64 -1.604,-5.46 -4.81,-5.46 m 22.945,22.035 c -1.95,-1.084 -3.445,-2.265 -4.485,-3.543 -1.04,-1.278 -1.885,-3.001 -2.535,-5.167 -0.65,-2.167 -0.975,-4.052 -0.975,-5.655 v -1.69 c 0,-2.644 0.953,-5.525 2.86,-8.645 1.04,-1.734 2.686,-3.11 4.94,-4.127 2.253,-1.019 4.81,-1.528 7.67,-1.528 l 3.51,0.13 c 2.253,0.043 4.528,0.996 6.825,2.86 2.296,1.82 3.445,4.506 3.445,8.06 h -7.02 l -0.13,-1.17 c -0.044,-0.694 -0.629,-1.409 -1.755,-2.145 -1.127,-0.737 -2.665,-1.105 -4.615,-1.105 l -1.69,0.13 c -1.214,0 -2.405,0.606 -3.575,1.82 -1.17,1.213 -1.755,2.99 -1.755,5.33 h 20.8 l 0.13,1.95 c 0.216,2.99 -0.499,6.261 -2.145,9.815 -0.91,1.906 -2.438,3.455 -4.583,4.648 -2.145,1.191 -4.626,1.787 -7.442,1.787 -2.817,0 -5.309,-0.585 -7.475,-1.755 m 0.585,-10.855 0.39,1.56 c 0.26,1.126 0.996,2.231 2.21,3.315 1.213,1.083 2.73,1.625 4.55,1.625 0.996,0 1.95,-0.217 2.86,-0.65 0.91,-0.434 1.56,-0.975 1.95,-1.625 0.866,-1.43 1.3,-2.839 1.3,-4.225 z m -1.69,15.73 h 16.64 v 5.07 H 42.25 Z" /></g></g></g></g></svg>