<?xml version="1.0" encoding="UTF-8" standalone="no"?>
<svg
   xmlns:dc="http://purl.org/dc/elements/1.1/"
   xmlns:cc="http://creativecommons.org/ns#"
   xmlns:rdf="http://www.w3.org/1999/02/22-rdf-syntax-ns#"
   xmlns:svg="http://www.w3.org/2000/svg"
   xmlns="http://www.w3.org/2000/svg"
   viewBox="0 0 79.73333 79.73333"
   height="79.73333"
   width="79.73333"
   xml:space="preserve"
   id="svg2"
   version="1.1"><metadata
     id="metadata8"><rdf:RDF><cc:Work
         rdf:about=""><dc:format>image/svg+xml</dc:format><dc:type
           rdf:resource="http://purl.org/dc/dcmitype/StillImage" /></cc:Work></rdf:RDF></metadata><defs
     id="defs6"><clipPath
       id="clipPath18"
       clipPathUnits="userSpaceOnUse"><path
         id="path16"
         d="M 0,0 H 59.8 V 59.8 H 0 Z" /></clipPath></defs><g
     transform="matrix(1.3333333,0,0,-1.3333333,0,79.733333)"
     id="g10"><g
       id="g12"><g
         clip-path="url(#clipPath18)"
         id="g14"><g
           transform="translate(4.94,35.23)"
           id="g20"><path
             id="path22"
             style="fill:#506a85;fill-opacity:1;fill-rule:nonzero;stroke:none"
             d="m 0,0 c 0.91,3.943 2.61,7.475 5.102,10.595 2.492,3.12 5.471,5.525 8.938,7.215 0.216,-0.174 0.736,-0.889 1.56,-2.145 C 18.806,10.985 21.45,6.803 23.53,3.12 15.73,1.04 7.886,0 0,0 m 26.78,-5.46 c -2.297,-0.78 -4.68,-1.896 -7.15,-3.348 -2.47,-1.452 -4.507,-2.936 -6.11,-4.452 -2.644,-2.47 -4.875,-5.049 -6.695,-7.735 -0.174,-0.26 -0.455,-0.715 -0.845,-1.365 -4.334,4.853 -6.5,10.53 -6.5,17.03 v 0.91 c 9.49,0 18.2,1.213 26.13,3.64 0.91,-1.604 1.603,-3.077 2.08,-4.42 -0.304,0 -0.607,-0.087 -0.91,-0.26 m -18.07,-19.5 0.52,-0.39 c -0.087,0 -0.26,0.13 -0.52,0.39 m 33.02,38.74 c -2.817,-3.77 -7.237,-6.804 -13.26,-9.1 -2.904,5.373 -6.067,10.313 -9.49,14.82 1.863,0.52 3.856,0.78 5.98,0.78 6.283,0 11.916,-2.124 16.9,-6.37 z m 4.355,-40.235 c 5.85,5.85 8.775,12.891 8.775,21.125 0,8.233 -2.925,15.275 -8.775,21.125 C 40.235,21.645 33.193,24.57 24.96,24.57 16.726,24.57 9.685,21.645 3.835,15.795 -2.015,9.945 -4.94,2.903 -4.94,-5.33 c 0,-8.234 2.925,-15.275 8.775,-21.125 5.85,-5.85 12.891,-8.775 21.125,-8.775 8.233,0 15.275,2.925 21.125,8.775 M 29.51,-9.36 c 2.6,-6.804 4.42,-13.26 5.46,-19.37 -3.38,-1.386 -6.717,-2.08 -10.01,-2.08 -5.764,0 -11.007,1.82 -15.73,5.46 l 0.13,0.13 c 3.986,7.28 10.66,12.523 20.02,15.73 z m 0.91,10.14 c 3.466,1.43 6.586,3.228 9.36,5.395 2.166,1.733 3.64,3.098 4.42,4.095 l 0.52,0.65 c 3.813,-4.637 5.72,-9.967 5.72,-15.99 -0.304,0.086 -1.214,0.26 -2.73,0.52 -5.2,0.823 -10.184,0.953 -14.95,0.39 l -0.65,1.3 c -0.52,1.213 -1.084,2.426 -1.69,3.64 m 17.225,-9.425 c 1.473,-0.347 2.318,-0.585 2.535,-0.715 -1.257,-7.41 -4.897,-13.087 -10.92,-17.03 -1.04,5.806 -2.687,11.873 -4.94,18.2 4.376,0.736 8.818,0.585 13.325,-0.455" /></g></g></g></g></svg>