<svg xmlns="http://www.w3.org/2000/svg" width="82.073" height="68.467" viewBox="0 0 82.072929 68.466797"><defs><clipPath id="a"><path d="M0 0h61.55v51.35H0z"/></clipPath></defs><g><g><g clip-path="url(#a)" transform="matrix(1.333 0 0 -1.333 0 68.467)"><g><path fill="#a3b1bf" d="M57.8 0c1.03 0 1.9.38 2.65 1.14.74.76 1.1 1.66 1.1 2.7V47.5c0 1.06-.36 1.95-1.1 2.7-.74.77-1.62 1.15-2.66 1.15H3.83c-1.04 0-1.94-.38-2.7-1.14C.38 49.46 0 48.57 0 47.53V3.83C0 2.8.38 1.9 1.14 1.14 1.9.4 2.8 0 3.84 0zM5.13 5.13V33.6c.73-.73 1.36-1.27 1.88-1.62 7.7-5.8 12.44-9.4 14.17-10.8 1.07-.94 2.57-2 4.48-3.18 1.5-1 3.2-1.5 5.07-1.5 1.95 0 3.7.5 5.26 1.5 1.6 1.04 3.07 2.1 4.37 3.2 3.72 2.98 8.45 6.58 14.17 10.78.56.35 1.2.9 1.95 1.62V5.13zm0 41.09H56.5V44c0-.78-.2-1.5-.53-2.14-1.04-2.5-2.52-4.44-4.42-5.8l-13.4-10.13-3.44-2.66c-1.55-1.08-2.83-1.63-3.82-1.63h-.13c-.57 0-1.17.16-1.82.46-1.1.56-2.4 1.43-3.97 2.6l-7.4 5.72-7.48 5.65c-1.22.9-2.32 2.1-3.32 3.58-1.08 1.7-1.62 3.14-1.62 4.35z"/></g></g></g></g></svg>