<svg xmlns="http://www.w3.org/2000/svg" width="56.841" height="81.257" viewBox="0 0 56.841125 81.257378"><defs><clipPath id="a"><path d="M0 0h45.47v65H0V0z"/></clipPath></defs><g><g><g clip-path="url(#a)" transform="matrix(1.25 0 0 -1.25 0 81.257)"><g><path fill="#506a85" d="M13.58 2.6C16.62.84 19.65-.03 22.68 0c3.12-.08 6.2.8 9.23 2.6v6.77H13.6V2.6zm17.94 10.67c0 2.6.52 5.07 1.56 7.4.48 1.1 1.08 2.2 1.8 3.35.7 1.15 1.3 2.07 1.8 2.77.5.68 1.26 1.65 2.25 2.9L41 32.45c3.26 4.38 4.74 8.9 4.43 13.6-.47 5.27-2.53 9.74-6.17 13.38-3.73 3.72-9.25 5.6-16.58 5.6-7.28 0-12.78-1.88-16.5-5.6C2.4 55.65.37 51.18.05 46.02c-.26-3.03.27-6 1.6-8.9 1.32-2.9 2.95-5.37 4.9-7.4 1.95-2.13 3.68-4.66 5.17-7.58 1.5-2.93 2.24-5.88 2.24-8.87h17.55zm-8.84 44.98c9.88 0 15.17-4.25 15.86-12.74.1-1.12-.06-2.5-.45-4.1-.18-.68-.9-2.03-2.16-4.02-.04-.1-.32-.5-.84-1.23l-1.56-2.2c-.52-.75-.8-1.14-.85-1.18-3.82-5.12-6.25-9.7-7.3-13.78H20.1c-1.04 3.97-3.46 8.57-7.28 13.77-.08.08-.43.56-1.04 1.43-.6.86-.93 1.34-.97 1.43-.05.08-.35.5-.9 1.23-.53.74-.82 1.15-.87 1.24l-.26.4c-.13.25-.27.5-.42.77-.15.26-.28.52-.4.78-.1.26-.15.4-.15.45 0 .04-.13.43-.4 1.17-.25.74-.36 1.15-.32 1.24.05.05 0 .47-.13 1.27s-.13 1.25 0 1.34c.7 8.5 5.94 12.75 15.73 12.75"/></g></g></g></g></svg>