<svg xmlns="http://www.w3.org/2000/svg" width="52.939" height="47.287" viewBox="0 0 52.938751 47.287498"><defs><clipPath id="a"><path d="M0 0h42.35v37.83H0V0z"/></clipPath></defs><g><g><g clip-path="url(#a)" transform="matrix(1.25 0 0 -1.25 0 47.288)"><g><path fill="#a3b1bf" d="M24.1 37.83c-1.1 0-2-.35-2.68-1.04-1.56-1.57-1.56-3.3 0-5.2l12.1-12.75-12.1-12.6c-1.56-1.92-1.56-3.65 0-5.2.7-.7 1.56-1.05 2.6-1.05s1.9.35 2.6 1.04l14.7 15.34c.68.7 1.03 1.52 1.03 2.47 0 1.04-.35 1.9-1.04 2.6L26.63 36.8c-.56.68-1.4 1.03-2.53 1.03"/></g><g><path fill="#a3b1bf" d="M3.54 22.46h27.9c1.95 0 3.54-1.6 3.54-3.54 0-1.96-1.6-3.55-3.54-3.55H3.54C1.6 15.37 0 16.97 0 18.92c0 1.95 1.6 3.54 3.54 3.54"/></g></g></g></g></svg>