<svg xmlns="http://www.w3.org/2000/svg" width="66.927" height="86.493" viewBox="0 0 66.9272 86.493332"><defs><clipPath id="a"><path d="M0 0h50.2v64.87H0z"/></clipPath></defs><g><g><g clip-path="url(#a)" transform="matrix(1.333 0 0 -1.333 0 86.493)"><g><path fill="#fff" d="M22.83 20.73c.87-.6 1.54-1.05 2.02-1.33.47-.28 1.12-.57 1.95-.87.82-.3 1.73-.5 2.73-.6 6.97-.5 12.43 2.3 16.38 8.4 4 6.1 5.42 12.97 4.3 20.6-.78 6.24-3.9 11-9.36 14.24-5.46 3.25-11.75 4.48-18.85 3.7-5.78-.74-10.83-3.16-15.16-7.28C2.5 53.42.24 48.35.02 42.37c-.26-8.45 2.77-13.43 9.1-14.95.82 2.04 1.2 3.4 1.17 4.06-.06.66-.53 1.78-1.44 3.34-.74 1.26-1.22 2.38-1.43 3.38-.6 4.03.08 7.7 2.08 11.05 1.87 3.16 4.36 5.64 7.48 7.44 3.12 1.8 6.76 2.58 10.92 2.32 3.9-.26 7.17-1.78 9.82-4.55 1.86-1.86 3.03-4.64 3.5-8.32.44-3.55.2-7.08-.7-10.6-.88-3.24-2.43-6.05-4.66-8.4-2.23-2.37-4.9-3.23-8.02-2.58-2.3.48-3.67 1.54-4.1 3.2-.48 1.72-.4 3.67.26 5.84.22.8.9 3.02 2.08 6.7 1.78 5.46 1.1 8.8-2 10-2.53 1-4.7.55-6.5-1.35-1.83-1.9-2.85-4.2-3.07-6.83-.2-2.82.2-5.33 1.25-7.54-.3-1.73-.83-3.88-1.56-6.43-1.3-4.64-2.35-9.04-3.13-13.2-.3-1.52-.5-2.88-.6-4.1-.2-2.03-.1-5.65.34-10.85 2.82 2.08 4.9 4.88 6.25 8.4 1.47 3.76 2.73 8.33 3.77 13.7.34-.22 1-.67 2-1.36"/></g></g></g></g></svg>
