<svg xmlns="http://www.w3.org/2000/svg" width="77.653" height="76.267" viewBox="0 0 77.653336 76.26667"><defs><clipPath id="a"><path d="M0 0h58.24v57.2H0z"/></clipPath></defs><g><g><g clip-path="url(#a)" transform="matrix(1.333 0 0 -1.333 0 76.267)"><g><path fill="#fff" d="M17.8 24.18c-3.02 0-6.47-.6-10.33-1.82-2.2-.7-4-1.93-5.4-3.7C.7 16.88 0 14.7 0 12.1s.6-4.82 1.82-6.64C3.02 3.64 4.66 2.38 6.7 1.7 9.8.55 12.6 0 15.07 0c.1 0 .17.04.26.13L15.6 0h.26c3.6 0 6.85.74 9.75 2.2 5.04 2.35 7.55 6.55 7.55 12.62 0 3.8-2.25 7.67-6.76 11.57-2.18 2.03-3.26 3.4-3.26 4.15 0 .7.82 1.86 2.47 3.5 2.96 2.44 4.43 5.86 4.43 10.28 0 2.73-.32 4.84-.94 6.34-.64 1.5-1.8 2.67-3.5 3.54.5.27 1.3.4 2.48.4 3.38.6 5.07 1.4 5.07 2.34v.26H18.2c-3.3 0-6.56-1.1-9.8-3.32-1.5-1-2.73-2.48-3.75-4.45-1.02-1.97-1.53-4.1-1.53-6.4 0-5.03 1.6-8.5 4.8-10.4 2.05-1.3 4.43-1.95 7.16-1.95h.9l-.12-.9c0-1.8.7-3.65 2.08-5.6zm-.12-3c2.7 0 4.9-.66 6.63-2 1.74-1.35 2.7-3.2 2.87-5.53.17-2.2-.63-4.12-2.4-5.72-1.65-1.47-3.9-2.34-6.73-2.6-2.84-.26-5.43.22-7.77 1.43-2.34 1.2-3.6 3-3.77 5.33-.17 2.42.83 4.52 3.02 6.3 2.2 1.77 4.56 2.7 7.12 2.8zm5.6 24.97c.77-2.5.7-4.94-.2-7.28-.9-2.34-2.28-3.77-4.1-4.3-.35-.08-.74-.12-1.17-.12-1.64 0-3.17.7-4.6 2.14-1.4 1.38-2.4 3.16-3 5.32-.6 2.17-.58 4.53.07 7.1.78 2.16 2.04 3.5 3.77 4.02.43.1.87.13 1.3.13 4 0 6.63-2.34 7.93-7.02M48.5 44.6h-6.12v-9.76h-9.75v-6.1h9.75v-9.76h6.1v9.75h9.76v6.1H48.5z"/></g></g></g></g></svg>
